<svg id="Capa_2" data-name="Capa 2" xmlns="http://www.w3.org/2000/svg" viewBox="0 0 335.04 81.13"><defs><style>.cls-1{fill:#fff;}</style></defs><title>stories-app</title><path class="cls-1" d="M0,81.13V61.53H1.31Q4.16,71.06,9,74.89a18.73,18.73,0,0,0,12,3.83q11.17,0,11.17-7.12A5,5,0,0,0,29.45,67,37,37,0,0,0,18.5,63.28,42.82,42.82,0,0,1,6,58Q0,54.09,0,45.55T5.26,31.92q5.26-5.09,14-5.09a27.26,27.26,0,0,1,11.06,2.52,9.06,9.06,0,0,0,3.18.88,2.53,2.53,0,0,0,1.86-.77,12.64,12.64,0,0,0,1.86-2.85h1.21V43.36H37.12q-5.58-14.23-17.3-14.23-5.15,0-7.66,1.81a5.41,5.41,0,0,0-2.52,4.54A3.93,3.93,0,0,0,10.4,38q0.77,0.93,1.21,1.37a5.58,5.58,0,0,0,1.42.93q1,0.49,1.64.77t2,0.71a15.76,15.76,0,0,0,2,.55A83.84,83.84,0,0,1,29.45,45.6a36.83,36.83,0,0,1,6.24,3.34q6,4.16,6,13.41t-5.47,14q-5.48,4.76-15,4.76A29,29,0,0,1,8.1,78,4.23,4.23,0,0,0,6,77.08q-2.41,0-4.71,4.05H0Z"/><path class="cls-1" d="M49.38,64.38V29.89h-6v-2h6V13.8l20.36-5V27.92H84v2H69.75v36.9a20.29,20.29,0,0,0,1,7.55q1,2.41,4.33,2.41t5.75-3.28a19,19,0,0,0,3.23-9L86,64.71q-0.88,7.55-4.82,12t-13,4.43q-9.09,0-13.9-3.61T49.38,64.38Z"/><path class="cls-1" d="M94.93,74.12q-7-7-7-20.09t7.5-20.15q7.5-7.06,21.08-7.06t20.26,6.51q6.67,6.52,6.68,19.87,0,27.92-27.81,27.92Q101.93,81.13,94.93,74.12Zm27.48-15.66V49.16q0-10.62-1.15-15.49T116,28.8a5.5,5.5,0,0,0-3.89,1.37,8.4,8.4,0,0,0-2.13,4.54,83.24,83.24,0,0,0-1,15v8.54q0,11.94.71,14.34a24.39,24.39,0,0,0,1.48,3.94q1.2,2.63,4.71,2.63,4.27,0,5.58-4.93Q122.41,70.73,122.41,58.47Z"/><path class="cls-1" d="M183.07,31Q179,31,176,36.24a24.34,24.34,0,0,0-3.07,12.48V78.07h7.77v2H146.5v-2h6V29.89h-6v-2h26.39V38.43a14.85,14.85,0,0,1,5.47-8.59,15,15,0,0,1,9.2-3,12.07,12.07,0,0,1,8.38,2.9q3.23,2.9,3.23,8.21t-2.41,8.16q-2.41,2.85-7.39,2.85T182,45.66q-2.35-3.28-.6-9.09h3.94Q188.1,31,183.07,31Z"/><path class="cls-1" d="M200.26,27.92h26.83V78.07h6.13v2H200.7v-2h6V29.89h-6.46v-2Zm16.53-7.56q-5.8,0-8.27-3a11.07,11.07,0,0,1-2.46-7.34,10.11,10.11,0,0,1,2.68-7.23Q211.42,0,216.9,0t8.32,2.57q2.85,2.57,2.85,7.34a10.52,10.52,0,0,1-2.74,7.61Q222.59,20.37,216.79,20.36Z"/><path class="cls-1" d="M243,73.85Q236,66.57,236,53.59t7.94-19.87q7.94-6.9,20.2-6.9,24.85,0,23.87,25H257.08v4.27q0,10.73,2.74,16.21t9.52,5.47q12.7,0,16.64-13.58l2,0.33a22.65,22.65,0,0,1-7.5,12.26Q275,81.13,264.2,81.13,250.07,81.13,243,73.85ZM257.19,49.6h11.28V44.23q0-8.87-1-12.1a4.1,4.1,0,0,0-4.16-3.23q-3.12,0-4.6,3.45t-1.48,11.88V49.6Z"/><path class="cls-1" d="M293.33,81.13V61.53h1.31q2.85,9.53,7.66,13.36a18.73,18.73,0,0,0,12,3.83q11.17,0,11.17-7.12a5,5,0,0,0-2.74-4.6,36.93,36.93,0,0,0-10.95-3.72A42.81,42.81,0,0,1,299.35,58q-6-3.94-6-12.48t5.25-13.63q5.26-5.09,14-5.09a27.26,27.26,0,0,1,11.06,2.52,9.06,9.06,0,0,0,3.18.88,2.53,2.53,0,0,0,1.86-.77,12.64,12.64,0,0,0,1.86-2.85h1.2V43.36h-1.32q-5.58-14.23-17.3-14.23-5.15,0-7.66,1.81A5.41,5.41,0,0,0,303,35.47a3.92,3.92,0,0,0,.77,2.57q0.76,0.93,1.2,1.37a5.59,5.59,0,0,0,1.42.93q1,0.49,1.64.77c0.44,0.18,1.11.42,2,.71a15.71,15.71,0,0,0,2,.55,83.76,83.76,0,0,1,10.73,3.23A36.84,36.84,0,0,1,329,48.94q6,4.16,6,13.41t-5.47,14q-5.48,4.76-15,4.76A29,29,0,0,1,301.43,78a4.22,4.22,0,0,0-2.08-.88q-2.41,0-4.71,4.05h-1.31Z"/></svg>