<svg id="Layer_1" data-name="Layer 1" xmlns="http://www.w3.org/2000/svg" viewBox="0 0 78.75 18"><defs><style>.cls-1{fill:#fff;}</style></defs><title>logo</title><path class="cls-1" d="M13.36,15.21V12.14h0.21a4.11,4.11,0,0,0,1.2,2.09,2.93,2.93,0,0,0,1.89.6q1.75,0,1.75-1.11A0.78,0.78,0,0,0,18,13a5.79,5.79,0,0,0-1.71-.58,6.71,6.71,0,0,1-2-.82,2.17,2.17,0,0,1-.94-2,2.84,2.84,0,0,1,.82-2.14,3,3,0,0,1,2.2-.8,4.27,4.27,0,0,1,1.73.39,1.42,1.42,0,0,0,.5.14,0.4,0.4,0,0,0,.29-0.12,2,2,0,0,0,.29-0.45h0.19V9.29H19.17q-0.87-2.23-2.71-2.23a2.06,2.06,0,0,0-1.2.28,0.85,0.85,0,0,0-.39.71,0.62,0.62,0,0,0,.12.4l0.19,0.21a0.87,0.87,0,0,0,.22.15l0.26,0.12L16,9.05l0.32,0.09A13.13,13.13,0,0,1,18,9.64a5.77,5.77,0,0,1,1,.52,2.37,2.37,0,0,1,.94,2.1,2.75,2.75,0,0,1-.86,2.2,3.46,3.46,0,0,1-2.35.75,4.55,4.55,0,0,1-2.06-.5,0.66,0.66,0,0,0-.33-0.14,1,1,0,0,0-.74.63H13.36Z"/><path class="cls-1" d="M21.09,12.58V7.18H20.15V6.87h0.94V4.66l3.19-.79v3h2.23V7.18H24.28V13a3.18,3.18,0,0,0,.16,1.18,0.66,0.66,0,0,0,.68.38A1.11,1.11,0,0,0,26,14a3,3,0,0,0,.51-1.41l0.29,0a3.33,3.33,0,0,1-.75,1.88,2.61,2.61,0,0,1-2,.69,3.58,3.58,0,0,1-2.18-.57A2.43,2.43,0,0,1,21.09,12.58Z"/><path class="cls-1" d="M28.22,14.11A4.26,4.26,0,0,1,27.13,11,4.13,4.13,0,0,1,28.3,7.81,4.63,4.63,0,0,1,31.6,6.7a4.39,4.39,0,0,1,3.17,1,4.17,4.17,0,0,1,1,3.11q0,4.37-4.36,4.37A4.39,4.39,0,0,1,28.22,14.11Zm4.3-2.45V10.2a11.66,11.66,0,0,0-.18-2.43A0.83,0.83,0,0,0,31.52,7a0.86,0.86,0,0,0-.61.21,1.32,1.32,0,0,0-.33.71,13,13,0,0,0-.15,2.35v1.34a12.17,12.17,0,0,0,.11,2.25,3.82,3.82,0,0,0,.23.62,0.73,0.73,0,0,0,.74.41,0.88,0.88,0,0,0,.87-0.77A11.85,11.85,0,0,0,32.53,11.66Z"/><path class="cls-1" d="M42,7.35a1.35,1.35,0,0,0-1.11.82,3.81,3.81,0,0,0-.48,2v4.6h1.22V15H36.3V14.73h0.94V7.18H36.3V6.87h4.13V8.52a2.33,2.33,0,0,1,.86-1.35,2.35,2.35,0,0,1,1.44-.47A1.89,1.89,0,0,1,44,7.16a1.64,1.64,0,0,1,.51,1.29,1.93,1.93,0,0,1-.38,1.28,1.43,1.43,0,0,1-1.16.45,1.32,1.32,0,0,1-1.15-.51,1.59,1.59,0,0,1-.09-1.42h0.62Q42.82,7.35,42,7.35Z"/><path class="cls-1" d="M44.72,6.87h4.2v7.85h1V15H44.79V14.73h0.94V7.18h-1V6.87Zm2.59-1.18A1.6,1.6,0,0,1,46,5.23a1.73,1.73,0,0,1-.39-1.15,1.58,1.58,0,0,1,.42-1.13,1.68,1.68,0,0,1,1.28-.45,1.88,1.88,0,0,1,1.3.4,1.47,1.47,0,0,1,.45,1.15,1.65,1.65,0,0,1-.43,1.19A1.78,1.78,0,0,1,47.31,5.69Z"/><path class="cls-1" d="M51.42,14.07a4.37,4.37,0,0,1-1.11-3.17,3.9,3.9,0,0,1,1.24-3.11A4.65,4.65,0,0,1,54.72,6.7q3.89,0,3.74,3.91H53.62v0.67a5.86,5.86,0,0,0,.43,2.54,1.53,1.53,0,0,0,1.49.86,2.56,2.56,0,0,0,2.61-2.13l0.31,0.05a3.55,3.55,0,0,1-1.17,1.92,4,4,0,0,1-2.55.69A4.42,4.42,0,0,1,51.42,14.07Zm2.22-3.8h1.77V9.43a7.25,7.25,0,0,0-.16-1.9A0.64,0.64,0,0,0,54.59,7a0.76,0.76,0,0,0-.72.54,5.22,5.22,0,0,0-.23,1.86v0.84Z"/><path class="cls-1" d="M59.3,15.21V12.14h0.21a4.11,4.11,0,0,0,1.2,2.09,2.93,2.93,0,0,0,1.89.6q1.75,0,1.75-1.11A0.78,0.78,0,0,0,63.91,13a5.78,5.78,0,0,0-1.71-.58,6.71,6.71,0,0,1-2-.82,2.17,2.17,0,0,1-.94-2,2.84,2.84,0,0,1,.82-2.14,3,3,0,0,1,2.2-.8,4.27,4.27,0,0,1,1.73.39,1.42,1.42,0,0,0,.5.14,0.4,0.4,0,0,0,.29-0.12,2,2,0,0,0,.29-0.45h0.19V9.29H65.11Q64.24,7.06,62.4,7.06a2.06,2.06,0,0,0-1.2.28,0.85,0.85,0,0,0-.39.71,0.61,0.61,0,0,0,.12.4l0.19,0.21a0.87,0.87,0,0,0,.22.15L61.6,8.94l0.32,0.11,0.32,0.09a13.12,13.12,0,0,1,1.68.51,5.77,5.77,0,0,1,1,.52,2.37,2.37,0,0,1,.94,2.1,2.75,2.75,0,0,1-.86,2.2,3.46,3.46,0,0,1-2.35.75,4.55,4.55,0,0,1-2.06-.5,0.66,0.66,0,0,0-.33-0.14,1,1,0,0,0-.74.63H59.3Z"/></svg>