<svg id="Capa_2" data-name="Capa 2" xmlns="http://www.w3.org/2000/svg" viewBox="0 0 153 37.05"><defs><style>.cls-1{fill:#fff;}</style></defs><title>logo</title><path class="cls-1" d="M0,37v-9H0.6q1.3,4.35,3.5,6.1a8.55,8.55,0,0,0,5.5,1.75q5.1,0,5.1-3.25a2.27,2.27,0,0,0-1.25-2.1,16.87,16.87,0,0,0-5-1.7,19.56,19.56,0,0,1-5.7-2.4A6.32,6.32,0,0,1,0,20.8a8.27,8.27,0,0,1,2.4-6.23,8.81,8.81,0,0,1,6.4-2.32,12.45,12.45,0,0,1,5,1.15,4.14,4.14,0,0,0,1.45.4,1.16,1.16,0,0,0,.85-0.35,5.77,5.77,0,0,0,.85-1.3h0.55V19.8H17q-2.55-6.5-7.9-6.5a6,6,0,0,0-3.5.83A2.47,2.47,0,0,0,4.4,16.2a1.8,1.8,0,0,0,.35,1.18Q5.1,17.8,5.3,18a2.55,2.55,0,0,0,.65.42q0.45,0.22.75,0.35T7.63,19.1a7.2,7.2,0,0,0,.93.25,38.29,38.29,0,0,1,4.9,1.48,16.82,16.82,0,0,1,2.85,1.52q2.75,1.9,2.75,6.13t-2.5,6.4A10.09,10.09,0,0,1,9.7,37a13.26,13.26,0,0,1-6-1.45,1.93,1.93,0,0,0-1-.4Q1.65,35.2.6,37H0Z"/><path class="cls-1" d="M22.55,29.4V13.65H19.8v-0.9h2.75V6.3L31.85,4v8.75h6.5v0.9h-6.5V30.5a9.27,9.27,0,0,0,.48,3.45,1.92,1.92,0,0,0,2,1.1,3.24,3.24,0,0,0,2.63-1.5,8.69,8.69,0,0,0,1.48-4.1l0.85,0.1A9.7,9.7,0,0,1,37.05,35q-1.8,2-6,2a10.44,10.44,0,0,1-6.35-1.65Q22.55,33.75,22.55,29.4Z"/><path class="cls-1" d="M43.35,33.85q-3.2-3.2-3.2-9.17t3.43-9.2Q47,12.25,53.2,12.25t9.25,3q3,3,3,9.08Q65.5,37,52.8,37,46.55,37,43.35,33.85ZM55.9,26.7V22.45a34,34,0,0,0-.52-7.07Q54.85,13.15,53,13.15a2.51,2.51,0,0,0-1.78.63,3.84,3.84,0,0,0-1,2.07,38,38,0,0,0-.45,6.85v3.9a35.49,35.49,0,0,0,.33,6.55,11.14,11.14,0,0,0,.67,1.8,2.13,2.13,0,0,0,2.15,1.2q2,0,2.55-2.25A34.55,34.55,0,0,0,55.9,26.7Z"/><path class="cls-1" d="M83.6,14.15q-1.85,0-3.25,2.4a11.11,11.11,0,0,0-1.4,5.7v13.4H82.5v0.9H66.9v-0.9h2.75v-22H66.9v-0.9H79v4.8a6.78,6.78,0,0,1,2.5-3.92,6.86,6.86,0,0,1,4.2-1.37,5.51,5.51,0,0,1,3.83,1.32A4.78,4.78,0,0,1,91,17.32,5.62,5.62,0,0,1,89.85,21a4.17,4.17,0,0,1-3.37,1.3,3.84,3.84,0,0,1-3.35-1.5q-1.08-1.5-.27-4.15h1.8Q85.9,14.15,83.6,14.15Z"/><path class="cls-1" d="M91.45,12.75H103.7v22.9h2.8v0.9H91.65v-0.9H94.4v-22h-3v-0.9ZM99,9.3a4.66,4.66,0,0,1-3.77-1.35A5.06,5.06,0,0,1,94.1,4.6a4.62,4.62,0,0,1,1.22-3.3A4.89,4.89,0,0,1,99.05,0a5.49,5.49,0,0,1,3.8,1.17,4.29,4.29,0,0,1,1.3,3.35A4.8,4.8,0,0,1,102.9,8,5.19,5.19,0,0,1,99,9.3Z"/><path class="cls-1" d="M111,33.72q-3.22-3.32-3.22-9.25t3.63-9.07a13.55,13.55,0,0,1,9.22-3.15q11.35,0,10.9,11.4H117.4V25.6a17.1,17.1,0,0,0,1.25,7.4A4.45,4.45,0,0,0,123,35.5q5.8,0,7.6-6.2l0.9,0.15a10.34,10.34,0,0,1-3.42,5.6q-2.48,2-7.42,2Q114.2,37,111,33.72Zm6.48-11.07h5.15V20.2a21.13,21.13,0,0,0-.47-5.52,1.87,1.87,0,0,0-1.9-1.48,2.22,2.22,0,0,0-2.1,1.58,15.22,15.22,0,0,0-.67,5.42v2.45Z"/><path class="cls-1" d="M134,37v-9h0.6q1.3,4.35,3.5,6.1a8.55,8.55,0,0,0,5.5,1.75q5.1,0,5.1-3.25a2.27,2.27,0,0,0-1.25-2.1,16.86,16.86,0,0,0-5-1.7,19.55,19.55,0,0,1-5.7-2.4A6.32,6.32,0,0,1,134,20.8a8.27,8.27,0,0,1,2.4-6.23,8.81,8.81,0,0,1,6.4-2.32,12.45,12.45,0,0,1,5,1.15,4.14,4.14,0,0,0,1.45.4,1.15,1.15,0,0,0,.85-0.35,5.77,5.77,0,0,0,.85-1.3h0.55V19.8h-0.6q-2.55-6.5-7.9-6.5a6,6,0,0,0-3.5.83,2.47,2.47,0,0,0-1.15,2.07,1.79,1.79,0,0,0,.35,1.18q0.35,0.42.55,0.63a2.55,2.55,0,0,0,.65.42l0.75,0.35c0.2,0.08.51,0.19,0.93,0.32a7.17,7.17,0,0,0,.92.25,38.25,38.25,0,0,1,4.9,1.48,16.82,16.82,0,0,1,2.85,1.52q2.75,1.9,2.75,6.13t-2.5,6.4A10.09,10.09,0,0,1,143.65,37a13.26,13.26,0,0,1-6-1.45,1.93,1.93,0,0,0-.95-0.4q-1.1,0-2.15,1.85H134Z"/></svg>