<svg id="Layer_1" data-name="Layer 1" xmlns="http://www.w3.org/2000/svg" viewBox="0 0 130.94 31.71"><defs><style>.cls-1{fill:#fff;}</style></defs><title>logo</title><path class="cls-1" d="M4.75,31.71V24H5.26a10.25,10.25,0,0,0,3,5.22A7.32,7.32,0,0,0,13,30.77q4.36,0,4.36-2.78a1.94,1.94,0,0,0-1.07-1.8A14.44,14.44,0,0,0,12,24.73,16.74,16.74,0,0,1,7.1,22.68,5.41,5.41,0,0,1,4.75,17.8,7.08,7.08,0,0,1,6.8,12.47a7.54,7.54,0,0,1,5.48-2,10.65,10.65,0,0,1,4.32,1,3.54,3.54,0,0,0,1.24.34,1,1,0,0,0,.73-0.3,4.94,4.94,0,0,0,.73-1.11h0.47v6.55H19.26q-2.18-5.56-6.76-5.56a5.15,5.15,0,0,0-3,.71,2.11,2.11,0,0,0-1,1.78,1.54,1.54,0,0,0,.3,1q0.3,0.36.47,0.53a2.18,2.18,0,0,0,.56.36l0.64,0.3q0.26,0.11.79,0.28a6.16,6.16,0,0,0,.79.21,32.77,32.77,0,0,1,4.19,1.26,14.39,14.39,0,0,1,2.44,1.31q2.35,1.63,2.35,5.24a6.87,6.87,0,0,1-2.14,5.48,8.63,8.63,0,0,1-5.86,1.86,11.34,11.34,0,0,1-5.13-1.24,1.65,1.65,0,0,0-.81-0.34q-0.94,0-1.84,1.58H4.75Z" transform="translate(-4.75)"/><path class="cls-1" d="M24,25.16V11.68H21.7V10.91H24V5.39l8-2v7.49h5.56v0.77H32V26.1a7.93,7.93,0,0,0,.41,3A1.65,1.65,0,0,0,34.1,30a2.78,2.78,0,0,0,2.25-1.28,7.44,7.44,0,0,0,1.26-3.51l0.73,0.09A8.3,8.3,0,0,1,36.46,30q-1.54,1.73-5.09,1.73a8.94,8.94,0,0,1-5.43-1.41Q24,28.88,24,25.16Z" transform="translate(-4.75)"/><path class="cls-1" d="M41.85,29q-2.74-2.74-2.74-7.85T42,13.24q2.93-2.76,8.24-2.76T58.2,13q2.61,2.55,2.61,7.77,0,10.91-10.87,10.91Q44.59,31.71,41.85,29Zm10.74-6.12V19.21a29.09,29.09,0,0,0-.45-6.05,2.07,2.07,0,0,0-2.08-1.9,2.15,2.15,0,0,0-1.52.53,3.28,3.28,0,0,0-.83,1.78,32.53,32.53,0,0,0-.39,5.86v3.34a30.37,30.37,0,0,0,.28,5.61,9.53,9.53,0,0,0,.58,1.54,1.82,1.82,0,0,0,1.84,1A2.19,2.19,0,0,0,52.2,29,29.57,29.57,0,0,0,52.59,22.85Z" transform="translate(-4.75)"/><path class="cls-1" d="M76.3,12.11q-1.58,0-2.78,2.05A9.51,9.51,0,0,0,72.32,19V30.51h3v0.77H62V30.51h2.35V11.68H62V10.91H72.32V15a5.8,5.8,0,0,1,2.14-3.36,5.87,5.87,0,0,1,3.59-1.18,4.72,4.72,0,0,1,3.27,1.13,4.09,4.09,0,0,1,1.26,3.21A4.81,4.81,0,0,1,81.65,18a3.57,3.57,0,0,1-2.89,1.11,3.29,3.29,0,0,1-2.87-1.28,4,4,0,0,1-.23-3.55h1.54Q78.26,12.11,76.3,12.11Z" transform="translate(-4.75)"/><path class="cls-1" d="M83,10.91H93.5v19.6h2.4v0.77H83.19V30.51h2.35V11.68H83V10.91Zm6.46-3A4,4,0,0,1,86.25,6.8a4.33,4.33,0,0,1-1-2.87,4,4,0,0,1,1-2.82A4.18,4.18,0,0,1,89.52,0a4.7,4.7,0,0,1,3.25,1,3.67,3.67,0,0,1,1.11,2.87,4.11,4.11,0,0,1-1.07,3A4.44,4.44,0,0,1,89.48,8Z" transform="translate(-4.75)"/><path class="cls-1" d="M99.72,28.86Q97,26,97,20.95t3.1-7.77a11.6,11.6,0,0,1,7.89-2.7q9.71,0,9.33,9.76H105.22v1.67a14.63,14.63,0,0,0,1.07,6.33A3.81,3.81,0,0,0,110,30.38q5,0,6.5-5.31l0.77,0.13A8.85,8.85,0,0,1,114.36,30q-2.12,1.71-6.35,1.71Q102.48,31.71,99.72,28.86Zm5.54-9.48h4.41v-2.1a18.08,18.08,0,0,0-.41-4.73,1.6,1.6,0,0,0-1.63-1.26,1.9,1.9,0,0,0-1.8,1.35,13,13,0,0,0-.58,4.64v2.1Z" transform="translate(-4.75)"/><path class="cls-1" d="M119.39,31.71V24h0.51a10.26,10.26,0,0,0,3,5.22,7.32,7.32,0,0,0,4.71,1.5Q132,30.77,132,28a1.94,1.94,0,0,0-1.07-1.8,14.43,14.43,0,0,0-4.28-1.45,16.73,16.73,0,0,1-4.88-2.05,5.41,5.41,0,0,1-2.35-4.88,7.08,7.08,0,0,1,2.05-5.33,7.54,7.54,0,0,1,5.48-2,10.65,10.65,0,0,1,4.32,1,3.54,3.54,0,0,0,1.24.34,1,1,0,0,0,.73-0.3,4.94,4.94,0,0,0,.73-1.11h0.47v6.55h-0.51q-2.18-5.56-6.76-5.56a5.15,5.15,0,0,0-3,.71,2.11,2.11,0,0,0-1,1.78,1.53,1.53,0,0,0,.3,1q0.3,0.36.47,0.53a2.18,2.18,0,0,0,.56.36l0.64,0.3c0.17,0.07.43,0.16,0.79,0.28a6.14,6.14,0,0,0,.79.21,32.73,32.73,0,0,1,4.19,1.26,14.4,14.4,0,0,1,2.44,1.31q2.35,1.63,2.35,5.24a6.87,6.87,0,0,1-2.14,5.48,8.63,8.63,0,0,1-5.86,1.86,11.35,11.35,0,0,1-5.13-1.24,1.65,1.65,0,0,0-.81-0.34q-0.94,0-1.84,1.58h-0.51Z" transform="translate(-4.75)"/></svg>